<svg width="530" height="528" viewBox="0 0 530 528" fill="none" xmlns="http://www.w3.org/2000/svg">
<path d="M233.945 14.5307L238.224 40.5817L233.961 41.2818L233.144 36.3084L232.244 36.4562L232.981 35.3138C233.318 37.3663 232.961 39.0462 231.911 40.3537C230.867 41.6927 229.255 42.5411 227.076 42.899C224.455 43.3294 222.239 42.8665 220.427 41.5102C218.615 40.1539 217.481 38.0863 217.025 35.3076L214.147 17.7823L218.409 17.0822L221.21 34.1338C221.516 35.9968 222.255 37.3348 223.426 38.1478C224.571 38.9974 225.996 39.2823 227.701 39.0022C229.469 38.7118 230.786 37.9442 231.652 36.6995C232.486 35.4599 232.737 33.8296 232.405 31.8087L229.682 15.2308L233.945 14.5307Z" fill="#F6F6F6"/>
<path d="M190.254 23.7376C192.271 23.1108 194.131 22.9514 195.835 23.2595C197.539 23.5676 199.027 24.3115 200.299 25.4913C201.549 26.7112 202.483 28.3143 203.1 30.3006L205.18 36.9928C205.807 39.0096 205.946 40.8596 205.598 42.5428C205.22 44.2354 204.416 45.6917 203.186 46.9115C201.957 48.1313 200.334 49.0547 198.317 49.6815C196.3 50.3083 194.44 50.4677 192.735 50.1596C191.031 49.8515 189.559 49.1028 188.318 47.9135C187.046 46.7337 186.102 45.1507 185.484 43.1644L183.39 36.4263C182.773 34.4401 182.649 32.5853 183.018 30.8621C183.366 29.1789 184.155 27.7274 185.384 26.5076C186.614 25.2878 188.237 24.3645 190.254 23.7376ZM191.393 27.4046C189.59 27.965 188.341 28.906 187.646 30.2279C186.951 31.5497 186.908 33.1885 187.516 35.1442L189.596 41.8364C190.203 43.7922 191.168 45.1175 192.49 45.8125C193.812 46.5075 195.374 46.5749 197.177 46.0145C198.95 45.4637 200.199 44.5226 200.924 43.1913C201.619 41.8694 201.663 40.2307 201.055 38.2749L198.975 31.5827C198.367 29.627 197.402 28.3016 196.08 27.6066C194.728 26.9211 193.166 26.8538 191.393 27.4046Z" fill="#F6F6F6"/>
<path d="M166.272 32.7782L177.514 56.665L173.693 58.4637L171.546 53.9035L170.634 54.3328L170.565 50.917C171.778 53.4939 172.141 55.6927 171.654 57.5134C171.151 59.3767 169.8 60.8262 167.599 61.8618C165.081 63.0474 162.708 63.1914 160.482 62.2939C158.24 61.439 156.486 59.6652 155.219 56.9725L154.544 55.5393L158.453 53.6997L158.964 54.7854C159.85 56.6674 160.988 57.8826 162.377 58.431C163.752 59.0219 165.279 58.9222 166.958 58.1319C168.608 57.3552 169.673 56.2353 170.151 54.7722C170.601 53.3228 170.39 51.6716 169.518 49.8185L162.364 34.6178L166.272 32.7782Z" fill="#F6F6F6"/>
<path d="M128.825 52.278C131.022 50.8434 133.285 50.4169 135.614 50.9983C137.916 51.5973 139.889 53.1561 141.534 55.6747L145.759 62.1456C147.421 64.691 148.063 67.138 147.685 69.4864C147.308 71.8348 146.007 73.735 143.783 75.1871C141.961 76.3767 140.177 76.8345 138.431 76.5604C136.685 76.2863 135.27 75.3186 134.186 73.6574L135.46 74.029L134.656 74.5539L138.017 79.5253L142.216 85.956L138.598 88.3178L119.442 58.978L123.059 56.6162L125.814 60.8363L126.538 60.364L126.365 61.6803C125.263 59.9923 124.938 58.2939 125.389 56.5853C125.858 54.9034 127.003 53.4676 128.825 52.278ZM129.666 56.2002C128.166 57.1799 127.293 58.4186 127.048 59.9162C126.803 61.4138 127.223 62.9933 128.307 64.6545L132.244 70.6832C133.328 72.3445 134.605 73.3641 136.075 73.742C137.545 74.12 139.03 73.8191 140.531 72.8394C142.058 71.8422 142.966 70.5995 143.256 69.1111C143.545 67.6228 143.13 66.0212 142.01 64.3064L138.074 58.2777C136.954 56.5628 135.655 55.5386 134.176 55.2049C132.697 54.8712 131.194 55.203 129.666 56.2002Z" fill="#F6F6F6"/>
<path d="M106.564 68.8328L127.096 85.9574L124.201 88.4807L109.91 76.1044C109.375 75.6368 108.798 75.121 108.179 74.5569C107.557 74.038 107.043 73.5945 106.637 73.2265C106.946 73.6787 107.316 74.2483 107.745 74.9354C108.171 75.6677 108.579 76.3307 108.969 76.9245L119.063 92.9595L115.952 95.6721L101.443 83.4851C100.909 83.0175 100.319 82.5122 99.6762 81.9691C99.0299 81.4713 98.5039 81.0383 98.0982 80.6703C98.4074 81.1224 98.7767 81.692 99.2059 82.3792C99.632 83.1115 100.04 83.7745 100.43 84.3683L110.669 100.277L107.919 102.674L93.9003 79.8723L97.4823 76.7497L111.603 88.638C112.288 89.2293 112.985 89.81 113.695 90.3803C114.404 90.9506 114.951 91.4076 115.336 91.7515C115.048 91.3235 114.657 90.7298 114.165 89.9703C113.673 89.2108 113.193 88.4407 112.724 87.6602L102.982 71.9554L106.564 68.8328Z" fill="#F6F6F6"/>
<path d="M76.8176 96.8748C78.6434 94.7731 80.6124 93.58 82.7247 93.2955C84.8611 93.0321 86.8473 93.6978 88.6832 95.2927C90.5433 96.9087 91.4802 98.7823 91.4938 100.914C91.5074 103.045 90.6223 105.137 88.8385 107.19L83.487 113.351L85.48 115.082C86.712 116.152 87.9794 116.596 89.2823 116.414C90.5883 116.277 91.8289 115.532 93.0041 114.179C94.0324 112.995 94.6392 111.785 94.8244 110.547C95.0338 109.33 94.7682 108.294 94.0277 107.438L96.8608 104.177C98.3871 105.885 99.049 107.88 98.8464 110.162C98.6438 112.445 97.6296 114.637 95.8038 116.739C93.8101 119.033 91.6443 120.331 89.3063 120.631C86.9684 120.932 84.7848 120.201 82.7556 118.438L69.0583 106.538L71.8285 103.35L75.6333 106.655L76.1055 106.112L76.1768 107.127C74.7274 105.868 74.0731 104.304 74.2139 102.434C74.3338 100.588 75.2017 98.7349 76.8176 96.8748ZM78.6978 99.907C77.3547 101.453 76.6395 103.057 76.5521 104.719C76.4647 106.381 77.0249 107.737 78.2328 108.786L81.0592 111.242L86.3477 105.154C87.2921 104.067 87.7351 102.947 87.6768 101.794C87.6186 100.641 87.07 99.6138 86.0313 98.7114C84.92 97.746 83.713 97.3545 82.4102 97.5367C81.1105 97.7641 79.8731 98.5542 78.6978 99.907Z" fill="#F6F6F6"/>
<path d="M52.8353 129.607C53.6729 128.32 54.6605 127.359 55.7984 126.725C56.9362 126.091 58.149 125.811 59.4368 125.885C60.7246 125.959 61.9989 126.406 63.2597 127.226L83.0962 140.13L87.9382 132.686L91.2376 134.832L84.04 145.897L60.9041 130.848C59.992 130.254 59.102 130.038 58.234 130.199C57.3928 130.377 56.693 130.895 56.1347 131.754L51.5544 138.795L48.255 136.649L52.8353 129.607Z" fill="#F6F6F6"/>
<path d="M38.1646 155.273C39.2779 152.897 40.9777 151.343 43.2638 150.612C45.5364 149.91 48.0346 150.197 50.7585 151.474L57.7564 154.752C60.5092 156.042 62.3431 157.785 63.2579 159.981C64.1728 162.176 64.0668 164.476 62.9399 166.882C62.0167 168.852 60.7407 170.18 59.1119 170.866C57.4831 171.551 55.7704 171.473 53.9738 170.632L55.2532 170.277L54.8458 171.146L60.3198 173.605L67.2742 176.864L65.4413 180.775L33.7116 165.909L35.5445 161.997L40.1083 164.135L40.4749 163.353L41.0211 164.563C39.1955 163.707 38.025 162.434 37.5095 160.744C37.023 159.067 37.2414 157.244 38.1646 155.273ZM40.944 158.166C40.1837 159.788 40.0934 161.301 40.6731 162.703C41.2528 164.106 42.441 165.228 44.2375 166.07L50.7574 169.125C52.5539 169.966 54.1765 170.161 55.6252 169.709C57.0739 169.257 58.1784 168.22 58.9387 166.597C59.7126 164.945 59.8309 163.411 59.2937 161.993C58.7566 160.575 57.5607 159.431 55.7062 158.563L49.1864 155.508C47.3318 154.639 45.6879 154.452 44.2547 154.946C42.8214 155.441 41.7179 156.514 40.944 158.166Z" fill="#F6F6F6"/>
<path d="M24.5281 190.509C25.1704 188.43 26.2354 186.933 27.7234 186.02C29.2419 185.116 30.9642 184.961 32.8904 185.556L31.6723 186.084L31.9273 185.259L27.1118 183.771L28.3869 179.644L61.8658 189.986L60.5908 194.113L53.2529 191.847L47.5486 189.984L47.2652 190.901L46.5571 189.778C48.4527 190.364 49.7726 191.458 50.5166 193.061C51.2511 194.695 51.302 196.536 50.6692 198.584C49.8852 201.122 48.4164 202.895 46.2625 203.905C44.1087 204.914 41.5795 204.97 38.6749 204.072L31.2912 201.791C28.4172 200.904 26.3755 199.436 25.1662 197.387C23.9569 195.339 23.7442 193.046 24.5281 190.509ZM28.5303 190.238C27.992 191.981 28.0867 193.517 28.8145 194.847C29.5424 196.177 30.8847 197.144 32.8414 197.749L39.7207 199.874C41.6774 200.479 43.3314 200.437 44.6826 199.749C46.0338 199.061 46.9786 197.846 47.517 196.103C48.0365 194.422 47.917 192.911 47.1586 191.572C46.3907 190.263 45.059 189.315 43.1634 188.73L36.2841 186.605C34.3885 186.019 32.7546 186.05 31.3822 186.698C30.0004 187.376 29.0498 188.556 28.5303 190.238Z" fill="#F6F6F6"/>
<path d="M17.0415 222.839C17.3751 220.786 18.0782 219.052 19.1509 217.638C20.2185 216.255 21.5638 215.258 23.1869 214.646C24.8365 214.071 26.6562 213.945 28.6461 214.269L35.7529 215.423C37.7744 215.752 39.4607 216.447 40.8118 217.51C42.1577 218.604 43.1182 219.976 43.6931 221.625C44.2628 223.306 44.3809 225.173 44.0474 227.226C43.7138 229.28 43.0132 230.997 41.9456 232.38C40.8729 233.794 39.5276 234.791 37.9096 235.372C36.2865 235.983 34.4643 236.125 32.4428 235.796L27.847 235.05L30.4797 218.846L27.9687 218.438C25.9156 218.104 24.2516 218.369 22.9768 219.232C21.7335 220.1 20.9553 221.497 20.6423 223.424C20.3754 225.066 20.4441 226.439 20.8485 227.542C21.2844 228.65 22.0687 229.41 23.2014 229.821L22.5086 234.085C20.3754 233.447 18.8127 232.09 17.8204 230.016C16.8547 227.979 16.595 225.587 17.0415 222.839ZM31.3672 231.342L33.1202 231.627C35.1733 231.961 36.8372 231.696 38.1121 230.833C39.3818 230.002 40.1758 228.607 40.494 226.649C40.807 224.722 40.4955 223.148 39.5593 221.926C38.6232 220.704 37.1285 219.926 35.0755 219.593L33.7015 219.37L31.6923 231.735L31.3672 231.342Z" fill="#F6F6F6"/>
<path d="M14.5294 248.35L40.9227 248.944L40.8276 253.167L35.7889 253.054L35.7662 254.061L32.6783 252.6C35.5256 252.664 37.6554 253.32 39.0676 254.568C40.5111 255.849 41.2055 257.705 41.1507 260.136C41.088 262.92 40.1586 265.107 38.3622 266.699C36.5972 268.324 34.2271 269.103 31.2518 269.036L29.6682 269L29.7655 264.681L30.9652 264.708C33.0447 264.755 34.6398 264.279 35.7506 263.279C36.8926 262.313 37.4846 260.902 37.5264 259.046C37.5674 257.223 37.04 255.771 35.9441 254.69C34.8474 253.641 33.2753 253.093 31.2279 253.047L14.4321 252.669L14.5294 248.35Z" fill="#F6F6F6"/>
<path d="M6.57654 286.407L10.4861 285.951L11.4585 294.295C11.6141 295.629 12.0291 296.564 12.7034 297.097C13.3814 297.663 14.3561 297.871 15.6275 297.723L18.9649 297.334L23.7437 296.874L23.6437 296.015L24.4533 296.743C22.5462 296.965 20.9624 296.505 19.7017 295.363C18.441 294.222 17.6866 292.586 17.4384 290.456C17.1235 287.755 17.7494 285.523 19.316 283.762C20.9145 281.997 23.2076 280.941 26.1953 280.592L31.7259 279.948C34.7137 279.6 37.1724 280.102 39.1021 281.456C41.0318 282.81 42.1541 284.837 42.469 287.539C42.7172 289.669 42.3591 291.434 41.3949 292.835C40.4306 294.236 38.9949 295.048 37.0878 295.27L37.7085 294.376L37.8029 295.187L42.8091 294.603L43.3036 298.846L16.1276 302.014C13.7755 302.288 11.8309 301.774 10.2937 300.471C8.76027 299.2 7.84351 297.277 7.54344 294.703L6.57654 286.407ZM21.3073 291.31C21.5147 293.09 22.234 294.424 23.465 295.311C24.696 296.199 26.2968 296.528 28.2675 296.298L33.2736 295.715C35.2443 295.485 36.7266 294.797 37.7205 293.65C38.7144 292.503 39.1076 291.04 38.9002 289.26C38.689 287.448 37.9838 286.097 36.7846 285.205C35.5891 284.346 33.9742 284.035 31.94 284.272L26.9338 284.856C24.8996 285.093 23.3996 285.767 22.4337 286.878C21.4716 288.021 21.0961 289.499 21.3073 291.31Z" fill="#F6F6F6"/>
<path d="M32.8717 359.132C32.4059 358.009 32.3571 356.973 32.7255 356.023C33.1061 355.103 33.8432 354.416 34.9369 353.963C36.0897 353.485 37.1409 353.43 38.0904 353.798C39.0522 354.196 39.766 354.957 40.2318 356.08C40.6977 357.203 40.7255 358.231 40.3153 359.163C39.9174 360.125 39.1421 360.845 37.9893 361.323C36.8956 361.776 35.8826 361.798 34.9504 361.388C34.0304 361.007 33.3375 360.255 32.8717 359.132Z" fill="#F6F6F6"/>
<path d="M62.14 410.73L82.8292 394.332L85.5126 397.717L81.5629 400.848L82.1294 401.563L80.7729 401.474C82.403 400.182 84.0445 399.677 85.6974 399.96C87.3754 400.222 88.9002 401.218 90.2717 402.949C91.9215 405.03 92.594 407.192 92.289 409.435C91.984 411.677 90.7281 413.673 88.5212 415.422L74.603 426.454L71.9196 423.069L85.4616 412.335C86.9412 411.162 87.7517 409.867 87.893 408.448C88.0793 407.034 87.6358 405.651 86.5624 404.296C85.4493 402.892 84.1384 402.114 82.6298 401.962C81.1411 401.836 79.5943 402.408 77.9893 403.68L64.8235 414.116L62.14 410.73Z" fill="#F6F6F6"/>
<path d="M91.4186 444.442C89.8907 442.984 88.8472 441.436 88.2883 439.797C87.7294 438.157 87.6566 436.495 88.0699 434.811C88.5285 433.125 89.4757 431.53 90.9117 430.025L95.7499 424.955C97.208 423.428 98.7572 422.407 100.397 421.893C102.061 421.402 103.724 421.397 105.388 421.878C107.051 422.36 108.647 423.33 110.175 424.788C111.703 426.246 112.746 427.795 113.305 429.434C113.864 431.073 113.925 432.724 113.489 434.386C113.076 436.071 112.151 437.666 110.715 439.17L105.844 444.275C104.408 445.78 102.847 446.789 101.161 447.304C99.5211 447.818 97.8692 447.834 96.2057 447.352C94.5422 446.87 92.9465 445.901 91.4186 444.442ZM94.0696 441.664C95.4355 442.968 96.8649 443.602 98.3579 443.567C99.8509 443.532 101.304 442.774 102.718 441.292L107.557 436.223C108.97 434.741 109.66 433.254 109.625 431.761C109.59 430.268 108.89 428.869 107.524 427.566C106.181 426.285 104.752 425.65 103.236 425.663C101.743 425.698 100.289 426.456 98.8752 427.938L94.037 433.008C92.6231 434.489 91.9336 435.977 91.9685 437.47C92.0265 438.985 92.7269 440.383 94.0696 441.664Z" fill="#F6F6F6"/>
<path d="M110.973 461.008L126.387 439.575L129.817 442.042L126.874 446.133L127.692 446.722L124.74 448.442C126.403 446.13 128.149 444.744 129.977 444.285C131.849 443.819 133.773 444.296 135.747 445.716C138.007 447.341 139.286 449.345 139.584 451.726C139.926 454.101 139.228 456.496 137.49 458.912L136.566 460.198L133.058 457.676L133.759 456.702C134.973 455.013 135.482 453.428 135.286 451.947C135.135 450.458 134.306 449.172 132.799 448.089C131.318 447.024 129.822 446.638 128.311 446.93C126.826 447.242 125.485 448.229 124.289 449.892L114.481 463.531L110.973 461.008Z" fill="#F6F6F6"/>
<path d="M146.213 484.261C143.892 483.038 142.419 481.268 141.796 478.95C141.201 476.647 141.604 474.165 143.006 471.504L146.609 464.666C148.026 461.977 149.852 460.227 152.088 459.415C154.324 458.604 156.617 458.817 158.967 460.055C160.892 461.07 162.159 462.407 162.768 464.066C163.377 465.725 163.219 467.432 162.294 469.187L161.999 467.893L162.849 468.34L165.561 462.987L169.141 456.192L172.962 458.206L156.629 489.206L152.807 487.193L155.156 482.734L154.392 482.331L155.626 481.842C154.686 483.626 153.36 484.735 151.648 485.171C149.95 485.579 148.138 485.276 146.213 484.261ZM149.233 481.62C150.818 482.455 152.325 482.616 153.753 482.103C155.181 481.589 156.357 480.455 157.282 478.7L160.638 472.33C161.563 470.574 161.833 468.963 161.45 467.494C161.066 466.026 160.081 464.874 158.496 464.039C156.882 463.189 155.354 462.999 153.913 463.469C152.472 463.94 151.273 465.081 150.319 466.893L146.963 473.262C146.008 475.074 145.744 476.708 146.171 478.162C146.598 479.617 147.619 480.77 149.233 481.62Z" fill="#F6F6F6"/>
<path d="M171.5 495.672L176.489 469.406L180.101 470.71L176.229 489.214C176.081 489.909 175.91 490.664 175.718 491.479C175.567 492.275 175.429 492.94 175.304 493.473C175.549 492.983 175.868 492.384 176.26 491.675C176.693 490.947 177.074 490.268 177.403 489.638L186.512 473.024L190.395 474.425L186.794 493.027C186.645 493.722 186.49 494.483 186.328 495.309C186.207 496.116 186.084 496.786 185.96 497.319C186.205 496.829 186.523 496.23 186.915 495.521C187.348 494.792 187.729 494.113 188.058 493.484L196.987 476.804L200.418 478.043L187.302 501.376L182.832 499.763L186.361 481.644C186.545 480.758 186.713 479.866 186.867 478.969C187.021 478.072 187.154 477.372 187.268 476.869C187.034 477.329 186.705 477.958 186.28 478.758C185.856 479.557 185.416 480.351 184.961 481.139L175.97 497.286L171.5 495.672Z" fill="#F6F6F6"/>
<path d="M210.463 508.044C207.739 507.469 205.74 506.328 204.465 504.62C203.196 502.881 202.813 500.822 203.315 498.442C203.823 496.031 205.005 494.302 206.861 493.254C208.717 492.207 210.976 491.963 213.638 492.525L221.622 494.208L222.167 491.625C222.504 490.028 222.276 488.705 221.483 487.655C220.729 486.58 219.475 485.858 217.722 485.488C216.187 485.164 214.834 485.222 213.662 485.662C212.497 486.07 211.72 486.806 211.333 487.869L207.106 486.978C207.856 484.814 209.278 483.266 211.372 482.334C213.465 481.402 215.874 481.223 218.598 481.797C221.572 482.425 223.759 483.687 225.158 485.584C226.556 487.482 226.978 489.745 226.424 492.376L222.68 510.129L218.547 509.258L219.587 504.326L218.882 504.178L219.735 503.622C219.339 505.5 218.29 506.832 216.587 507.618C214.916 508.41 212.874 508.552 210.463 508.044ZM212.2 504.927C214.204 505.349 215.953 505.195 217.448 504.464C218.943 503.733 219.856 502.584 220.186 501.019L220.959 497.355L213.068 495.691C211.659 495.394 210.465 495.551 209.486 496.162C208.507 496.773 207.875 497.752 207.591 499.099C207.287 500.539 207.532 501.784 208.324 502.834C209.155 503.86 210.446 504.557 212.2 504.927Z" fill="#F6F6F6"/>
<path d="M250.725 513.098C249.193 512.992 247.873 512.595 246.766 511.909C245.659 511.223 244.825 510.299 244.264 509.137C243.703 507.976 243.475 506.645 243.579 505.144L245.217 481.537L236.358 480.922L236.631 476.996L249.799 477.909L247.889 505.443C247.813 506.529 248.057 507.412 248.619 508.092C249.183 508.741 249.976 509.1 250.998 509.171L259.378 509.753L259.105 513.679L250.725 513.098Z" fill="#F6F6F6"/>
<path d="M280.286 513.448C277.668 513.629 275.485 512.899 273.735 511.256C272.017 509.611 271.054 507.288 270.845 504.287L270.311 496.578C270.1 493.545 270.732 491.095 272.206 489.229C273.681 487.362 275.743 486.337 278.392 486.153C280.563 486.003 282.344 486.473 283.735 487.563C285.126 488.653 285.89 490.188 286.027 492.167L285.095 491.221L286.053 491.155L285.542 485.176L285.01 477.515L289.32 477.215L291.745 512.171L287.436 512.47L287.087 507.443L286.225 507.502L287.017 506.437C287.157 508.448 286.613 510.09 285.386 511.362C284.157 512.602 282.457 513.297 280.286 513.448ZM281.464 509.613C283.251 509.489 284.617 508.833 285.561 507.645C286.505 506.456 286.909 504.873 286.771 502.893L286.273 495.711C286.135 493.732 285.517 492.219 284.418 491.172C283.319 490.126 281.876 489.665 280.088 489.789C278.268 489.915 276.87 490.557 275.891 491.716C274.913 492.874 274.495 494.475 274.637 496.518L275.135 503.701C275.277 505.744 275.912 507.272 277.041 508.284C278.17 509.296 279.644 509.739 281.464 509.613Z" fill="#F6F6F6"/>
<path d="M317.708 508.243C315.579 508.692 313.754 508.489 312.232 507.632C310.704 506.744 309.732 505.314 309.316 503.341L310.37 504.15L309.524 504.328L310.564 509.259L306.337 510.151L299.107 475.865L303.334 474.973L304.919 482.488L306.063 488.379L307.002 488.181L306.365 489.345C305.955 487.404 306.27 485.719 307.31 484.289C308.381 482.854 309.965 481.915 312.063 481.472C314.662 480.924 316.926 481.346 318.854 482.738C320.783 484.13 322.061 486.313 322.688 489.288L324.283 496.85C324.903 499.793 324.612 502.291 323.41 504.343C322.208 506.395 320.307 507.695 317.708 508.243ZM315.527 504.877C317.311 504.501 318.608 503.671 319.417 502.389C320.226 501.106 320.419 499.463 319.996 497.459L318.511 490.414C318.088 488.41 317.248 486.985 315.99 486.138C314.732 485.292 313.211 485.056 311.426 485.433C309.704 485.796 308.442 486.634 307.64 487.948C306.869 489.255 306.688 490.88 307.098 492.821L308.583 499.866C308.993 501.807 309.814 503.22 311.047 504.105C312.311 504.983 313.804 505.24 315.527 504.877Z" fill="#F6F6F6"/>
<path d="M349.602 499.076C347.646 499.782 345.789 500.01 344.032 499.76C342.305 499.499 340.779 498.808 339.456 497.686C338.152 496.524 337.158 494.995 336.473 493.098L334.029 486.326C333.334 484.4 333.122 482.588 333.394 480.891C333.696 479.183 334.428 477.677 335.591 476.373C336.783 475.058 338.358 474.047 340.314 473.341C342.271 472.635 344.112 472.412 345.84 472.673C347.597 472.924 349.122 473.615 350.415 474.747C351.739 475.869 352.748 477.392 353.443 479.319L355.024 483.698L339.583 489.271L340.446 491.664C341.153 493.621 342.192 494.946 343.566 495.641C344.929 496.306 346.528 496.307 348.364 495.645C349.929 495.08 351.096 494.353 351.863 493.463C352.62 492.544 352.903 491.489 352.711 490.299L356.775 488.833C357.254 491.007 356.828 493.032 355.497 494.907C354.186 496.741 352.221 498.131 349.602 499.076ZM350.073 482.423L349.47 480.753C348.764 478.796 347.724 477.471 346.351 476.776C345.007 476.07 343.402 476.054 341.536 476.727C339.7 477.39 338.476 478.427 337.863 479.839C337.249 481.251 337.296 482.935 338.002 484.892L338.475 486.201L350.259 481.948L350.073 482.423Z" fill="#F6F6F6"/>
<path d="M373.12 488.875L360.813 465.518L364.55 463.549L366.9 468.008L367.792 467.538L368.014 470.947C366.687 468.428 366.225 466.248 366.63 464.407C367.048 462.523 368.333 461.014 370.484 459.88C372.947 458.582 375.311 458.332 377.575 459.128C379.853 459.881 381.685 461.574 383.073 464.207L383.811 465.609L379.989 467.622L379.43 466.561C378.46 464.72 377.269 463.558 375.856 463.072C374.456 462.544 372.935 462.712 371.293 463.578C369.679 464.428 368.666 465.594 368.254 467.078C367.87 468.546 368.156 470.186 369.11 471.998L376.941 486.861L373.12 488.875Z" fill="#F6F6F6"/>
<path d="M410.245 477.332L407.947 474.136L414.767 469.232C415.858 468.447 416.473 467.631 416.612 466.782C416.776 465.915 416.485 464.962 415.738 463.922L413.776 461.195L411.051 457.242L410.35 457.746L410.592 456.685C411.713 458.244 412.081 459.852 411.695 461.508C411.31 463.165 410.247 464.619 408.507 465.871C406.298 467.459 404.044 467.996 401.743 467.483C399.424 466.944 397.386 465.453 395.63 463.011L392.379 458.49C390.623 456.048 389.868 453.655 390.113 451.311C390.358 448.966 391.585 447 393.793 445.412C395.534 444.16 397.251 443.615 398.944 443.777C400.637 443.939 402.044 444.8 403.165 446.358L402.082 446.25L402.745 445.774L399.802 441.682L403.27 439.188L419.245 461.4C420.627 463.323 421.123 465.272 420.731 467.249C420.365 469.207 419.13 470.942 417.026 472.456L410.245 477.332ZM407.373 462.075C408.828 461.028 409.644 459.752 409.821 458.244C409.999 456.737 409.508 455.178 408.35 453.568L405.407 449.476C404.249 447.865 402.927 446.904 401.442 446.593C399.956 446.281 398.486 446.649 397.032 447.695C395.551 448.76 394.712 450.033 394.516 451.514C394.346 452.977 394.859 454.539 396.055 456.202L398.997 460.294C400.193 461.956 401.511 462.94 402.952 463.244C404.418 463.529 405.892 463.139 407.373 462.075Z" fill="#F6F6F6"/>
<path d="M461.029 419.01C460.274 419.963 459.391 420.509 458.383 420.648C457.394 420.763 456.435 420.452 455.507 419.717C454.529 418.942 453.97 418.05 453.831 417.041C453.711 416.007 454.029 415.013 454.785 414.06C455.54 413.107 456.425 412.584 457.439 412.489C458.473 412.369 459.479 412.697 460.457 413.472C461.385 414.208 461.896 415.083 461.99 416.097C462.105 417.086 461.784 418.057 461.029 419.01Z" fill="#F6F6F6"/>
<path d="M491.902 368.355L467.516 358.242L469.171 354.252L473.827 356.182L474.176 355.34L474.758 356.568C472.837 355.772 471.598 354.582 471.041 353C470.455 351.406 470.585 349.59 471.431 347.55C472.448 345.097 474.011 343.458 476.119 342.635C478.228 341.812 480.582 341.94 483.183 343.018L499.589 349.822L497.934 353.812L481.972 347.193C480.228 346.469 478.702 346.391 477.393 346.957C476.067 347.481 475.073 348.541 474.411 350.137C473.725 351.792 473.682 353.316 474.282 354.708C474.895 356.071 476.147 357.145 478.039 357.929L493.557 364.365L491.902 368.355Z" fill="#F6F6F6"/>
<path d="M507.139 326.384C506.607 328.428 505.76 330.093 504.599 331.378C503.438 332.663 502.021 333.534 500.348 333.991C498.652 334.41 496.797 334.357 494.784 333.833L488.002 332.068C485.958 331.536 484.313 330.679 483.067 329.495C481.829 328.28 481.017 326.828 480.629 325.14C480.242 323.452 480.314 321.586 480.846 319.542C481.378 317.499 482.224 315.834 483.386 314.549C484.547 313.264 485.96 312.408 487.625 311.982C489.298 311.524 491.141 311.558 493.154 312.082L499.982 313.858C501.995 314.382 503.636 315.256 504.905 316.479C506.151 317.663 506.968 319.099 507.355 320.787C507.743 322.475 507.67 324.34 507.139 326.384ZM503.422 325.417C503.898 323.59 503.757 322.033 503.001 320.745C502.245 319.457 500.876 318.555 498.894 318.039L492.112 316.274C490.13 315.759 488.495 315.879 487.207 316.635C485.92 317.391 485.038 318.682 484.562 320.51C484.095 322.306 484.235 323.863 484.983 325.182C485.739 326.47 487.108 327.372 489.09 327.888L495.872 329.652C497.854 330.168 499.489 330.048 500.777 329.292C502.073 328.505 502.955 327.214 503.422 325.417Z" fill="#F6F6F6"/>
<path d="M512.114 301.243L485.892 298.187L486.381 293.991L491.387 294.575L491.504 293.574L494.442 295.317C491.613 294.988 489.554 294.136 488.264 292.761C486.946 291.351 486.428 289.438 486.71 287.022C487.032 284.257 488.162 282.166 490.099 280.749C492.008 279.296 494.441 278.742 497.397 279.086L498.97 279.27L498.47 283.561L497.278 283.422C495.212 283.181 493.579 283.506 492.38 284.397C491.153 285.253 490.432 286.603 490.217 288.446C490.006 290.258 490.395 291.753 491.385 292.931C492.379 294.078 493.893 294.77 495.928 295.007L512.615 296.952L512.114 301.243Z" fill="#F6F6F6"/>
<path d="M515.313 259.144C515.372 261.768 514.54 263.915 512.817 265.586C511.093 267.225 508.728 268.079 505.721 268.147L497.995 268.321C494.956 268.389 492.538 267.643 490.743 266.083C488.947 264.523 488.019 262.416 487.959 259.76C487.91 257.585 488.463 255.828 489.617 254.49C490.771 253.151 492.34 252.46 494.324 252.415L493.335 253.302L493.314 252.342L487.317 252.573L479.639 252.746L479.542 248.427L514.573 247.638L514.671 251.957L509.632 252.07L509.651 252.934L508.624 252.093C510.64 252.048 512.254 252.668 513.467 253.953C514.648 255.238 515.264 256.969 515.313 259.144ZM511.537 257.789C511.497 255.997 510.905 254.602 509.762 253.604C508.62 252.605 507.056 252.128 505.073 252.173L497.875 252.335C495.891 252.38 494.351 252.927 493.255 253.976C492.158 255.025 491.63 256.445 491.67 258.236C491.711 260.06 492.287 261.487 493.399 262.519C494.51 263.55 496.09 264.042 498.137 263.996L505.336 263.834C507.383 263.788 508.939 263.225 510.003 262.145C511.067 261.064 511.578 259.613 511.537 257.789Z" fill="#F6F6F6"/>
<path d="M512.998 231.499L487.618 239.902L487.002 236.112L505.056 230.504C505.736 230.296 506.478 230.078 507.284 229.85C508.053 229.595 508.701 229.393 509.228 229.243C508.681 229.267 508.002 229.28 507.192 229.282C506.345 229.257 505.566 229.254 504.856 229.272L485.909 229.384L485.247 225.31L503.255 219.417C503.934 219.21 504.674 218.976 505.475 218.716C506.239 218.43 506.884 218.212 507.411 218.061C506.864 218.085 506.185 218.098 505.375 218.1C504.528 218.076 503.75 218.073 503.039 218.091L484.123 218.392L483.538 214.792L510.304 214.916L511.066 219.607L493.517 225.328C492.653 225.598 491.791 225.883 490.933 226.185C490.074 226.487 489.397 226.71 488.902 226.855C489.418 226.836 490.128 226.818 491.033 226.801C491.938 226.784 492.845 226.782 493.755 226.796L512.236 226.809L512.998 231.499Z" fill="#F6F6F6"/>
<path d="M504.877 191.434C505.699 194.093 505.673 196.396 504.8 198.34C503.896 200.294 502.283 201.629 499.959 202.347C497.605 203.075 495.519 202.882 493.701 201.768C491.884 200.655 490.574 198.799 489.771 196.201L487.362 188.404L484.84 189.183C483.281 189.665 482.235 190.507 481.702 191.71C481.129 192.892 481.107 194.339 481.636 196.051C482.099 197.549 482.807 198.703 483.761 199.514C484.684 200.334 485.704 200.655 486.822 200.477L488.097 204.605C485.841 205 483.797 204.51 481.965 203.133C480.133 201.757 478.807 199.738 477.985 197.078C477.088 194.174 477.128 191.649 478.107 189.505C479.086 187.36 480.859 185.892 483.427 185.098L500.763 179.743L502.01 183.779L497.194 185.266L497.407 185.954L496.506 185.479C498.341 184.912 500.015 185.182 501.529 186.288C503.034 187.364 504.15 189.079 504.877 191.434ZM501.309 191.43C500.704 189.474 499.719 188.02 498.354 187.068C496.988 186.117 495.541 185.878 494.012 186.35L490.435 187.455L492.815 195.16C493.24 196.535 493.958 197.503 494.968 198.062C495.978 198.62 497.14 198.697 498.455 198.291C499.861 197.856 500.831 197.037 501.363 195.835C501.856 194.611 501.838 193.143 501.309 191.43Z" fill="#F6F6F6"/>
<path d="M489.729 153.789C490.38 155.18 490.675 156.526 490.613 157.827C490.552 159.128 490.149 160.306 489.407 161.361C488.664 162.416 487.612 163.262 486.25 163.9L464.821 173.94L468.589 181.981L465.025 183.651L459.424 171.698L484.417 159.988C485.402 159.527 486.056 158.885 486.377 158.063C486.67 157.254 486.599 156.386 486.164 155.459L482.6 147.852L486.165 146.182L489.729 153.789Z" fill="#F6F6F6"/>
<path d="M475.67 127.783C477.1 129.983 477.523 132.246 476.938 134.574C476.335 136.875 474.773 138.846 472.251 140.486L465.773 144.7C463.225 146.357 460.777 146.995 458.429 146.614C456.081 146.232 454.183 144.928 452.735 142.702C451.548 140.878 451.094 139.093 451.371 137.348C451.648 135.602 452.618 134.189 454.281 133.107L453.907 134.381L453.384 133.576L448.406 136.928L441.969 141.116L439.613 137.495L468.986 118.388L471.341 122.009L467.116 124.758L467.588 125.482L466.271 125.307C467.961 124.208 469.66 123.885 471.368 124.34C473.049 124.811 474.483 125.959 475.67 127.783ZM471.746 128.618C470.769 127.115 469.532 126.241 468.034 125.993C466.537 125.745 464.957 126.162 463.294 127.244L457.258 131.17C455.595 132.252 454.574 133.527 454.193 134.996C453.813 136.466 454.111 137.951 455.088 139.453C456.083 140.982 457.324 141.893 458.812 142.185C460.3 142.477 461.902 142.064 463.619 140.948L469.654 137.022C471.371 135.905 472.397 134.607 472.733 133.129C473.07 131.65 472.741 130.147 471.746 128.618Z" fill="#F6F6F6"/>
<path d="M452.936 97.6056C454.363 99.2483 455.072 100.943 455.063 102.689C455.029 104.456 454.252 106 452.73 107.322L452.924 106.009L453.491 106.661L457.295 103.356L460.129 106.617L433.676 129.597L430.843 126.336L436.641 121.299L441.233 117.437L440.604 116.712L441.931 116.703C440.434 118.004 438.808 118.548 437.053 118.334C435.278 118.096 433.687 117.167 432.281 115.549C430.539 113.544 429.808 111.36 430.088 108.998C430.367 106.636 431.654 104.458 433.949 102.464L439.783 97.3962C442.054 95.4235 444.378 94.464 446.756 94.5176C449.134 94.5712 451.194 95.6006 452.936 97.6056ZM451.054 101.148C449.858 99.7711 448.503 99.0408 446.989 98.9572C445.475 98.8735 443.945 99.5032 442.399 100.846L436.963 105.568C435.417 106.911 434.58 108.338 434.451 109.849C434.322 111.36 434.856 112.804 436.052 114.181C437.206 115.509 438.553 116.205 440.091 116.268C441.608 116.306 443.115 115.675 444.613 114.374L450.048 109.652C451.546 108.351 452.382 106.946 452.556 105.439C452.709 103.907 452.208 102.477 451.054 101.148Z" fill="#F6F6F6"/>
<path d="M429.425 74.1853C430.993 75.5521 432.095 77.0643 432.73 78.7218C433.341 80.3582 433.478 82.0272 433.141 83.7287C432.759 85.4332 431.906 87.0453 430.581 88.5649L425.85 93.9923C424.504 95.536 423.023 96.6014 421.408 97.1884C419.768 97.7544 418.096 97.8463 416.392 97.4641C414.663 97.0609 413.015 96.1759 411.447 94.8091C409.879 93.4423 408.789 91.9407 408.178 90.3042C407.543 88.6467 407.406 86.9777 407.767 85.2973C408.104 83.5959 408.946 81.9733 410.291 80.4295L413.351 76.9198L425.725 87.707L427.397 85.7893C428.764 84.2214 429.417 82.6684 429.357 81.1302C429.276 79.6162 428.5 78.2178 427.028 76.9352C425.774 75.8417 424.572 75.1757 423.421 74.937C422.25 74.7224 421.191 74.9878 420.244 75.7331L416.987 72.8943C418.655 71.4192 420.632 70.8075 422.917 71.0591C425.157 71.3139 427.327 72.3559 429.425 74.1853ZM414.642 81.8664L413.475 83.2051C412.109 84.773 411.455 86.326 411.515 87.8642C411.551 89.3813 412.317 90.7918 413.812 92.0955C415.284 93.3781 416.785 93.9443 418.317 93.794C419.849 93.6436 421.299 92.7845 422.666 91.2166L423.58 90.1673L414.137 81.9351L414.642 81.8664Z" fill="#F6F6F6"/>
<path d="M409.081 58.5888L394.648 80.6941L391.111 78.3847L393.866 74.1646L393.022 73.6136L395.894 71.7621C394.337 74.1468 392.655 75.6096 390.85 76.1506C389 76.7008 387.057 76.3112 385.021 74.9816C382.69 73.4595 381.322 71.5155 380.918 69.1496C380.469 66.793 381.058 64.3688 382.685 61.8769L383.551 60.5506L387.169 62.9124L386.512 63.9171C385.375 65.6588 384.938 67.265 385.201 68.7358C385.419 70.216 386.305 71.4634 387.859 72.4781C389.386 73.4753 390.898 73.7937 392.395 73.4332C393.865 73.0552 395.159 72.0088 396.279 70.294L405.464 56.227L409.081 58.5888Z" fill="#F6F6F6"/>
<path d="M380.952 31.7502L379.275 35.3115L371.675 31.7345C370.459 31.1622 369.447 31.0217 368.638 31.3129C367.8 31.5905 367.108 32.3083 366.563 33.4665L365.132 36.5066L363.001 40.8088L363.783 41.1767L362.738 41.4807C363.556 39.7435 364.782 38.6407 366.417 38.1724C368.052 37.7041 369.84 37.9264 371.78 38.8394C374.241 39.9976 375.806 41.7069 376.475 43.967C377.131 46.2561 376.818 48.7615 375.537 51.4831L373.166 56.5211C371.885 59.2427 370.161 61.0659 367.993 61.9907C365.824 62.9154 363.51 62.7987 361.049 61.6404C359.109 60.7274 357.798 59.4917 357.117 57.9333C356.436 56.3748 356.504 54.727 357.322 52.9898L357.753 53.9887L357.015 53.6412L354.869 58.2014L351.003 56.3823L362.654 31.6269C363.663 29.4843 365.126 28.1039 367.043 27.4857C368.932 26.8539 371.049 27.0899 373.395 28.1937L380.952 31.7502ZM369.013 41.6751C367.391 40.912 365.879 40.8191 364.475 41.3964C363.072 41.9738 361.948 43.16 361.103 44.9551L358.957 49.5153C358.112 51.3104 357.914 52.9327 358.364 54.3822C358.813 55.8316 359.849 56.9378 361.47 57.7009C363.121 58.4777 364.641 58.5918 366.031 58.0435C367.391 57.4815 368.508 56.2739 369.38 54.4209L371.526 49.8607C372.398 48.0077 372.617 46.3777 372.183 44.9709C371.72 43.5504 370.663 42.4518 369.013 41.6751Z" fill="#F6F6F6"/>
<path d="M305.301 15.7075C306.5 15.9045 307.407 16.41 308.019 17.224C308.599 18.0328 308.794 19.0214 308.602 20.1897C308.4 21.4212 307.891 22.3431 307.077 22.9552C306.232 23.5622 305.209 23.7672 304.009 23.5701C302.809 23.373 301.922 22.8543 301.346 22.014C300.739 21.1684 300.537 20.1299 300.739 18.8984C300.931 17.73 301.447 16.8582 302.287 16.2827C303.096 15.7021 304.101 15.5104 305.301 15.7075Z" fill="#F6F6F6"/>
</svg>
