<svg width="50" height="51" viewBox="0 0 50 51" fill="none" xmlns="http://www.w3.org/2000/svg">
<g clip-path="url(#clip0_46_758)">
<path fill-rule="evenodd" clip-rule="evenodd" d="M25.0014 1.62036C19.0665 1.62344 13.3261 3.72548 8.80682 7.55062C4.28753 11.3758 1.28398 16.6745 0.333229 22.4995C-0.617519 28.3245 0.546525 34.2958 3.61724 39.3457C6.68796 44.3956 11.4651 48.1949 17.0944 50.064C18.3364 50.2946 18.8042 49.5248 18.8042 48.8704C18.8042 48.2159 18.7793 46.3183 18.771 44.2437C11.8163 45.7461 10.3466 41.3089 10.3466 41.3089C9.21235 38.4275 7.573 37.6701 7.573 37.6701C5.30442 36.1307 7.74275 36.1595 7.74275 36.1595C10.2556 36.3365 11.5762 38.7239 11.5762 38.7239C13.8034 42.5232 17.4256 41.4241 18.8497 40.782C19.0732 39.1726 19.7232 38.0776 20.4394 37.4561C14.8838 36.8304 9.04676 34.6982 9.04676 25.1733C9.01232 22.7031 9.93422 20.3142 11.6217 18.5009C11.365 17.8753 10.5081 15.3479 11.8659 11.915C11.8659 11.915 13.9648 11.2482 18.7421 14.4629C22.8397 13.3487 27.1631 13.3487 31.2607 14.4629C36.0339 11.2482 38.1286 11.915 38.1286 11.915C39.4905 15.3397 38.6336 17.867 38.377 18.5009C40.0698 20.3145 40.9936 22.7075 40.956 25.1816C40.956 34.727 35.1065 36.8304 29.5427 37.4438C30.4369 38.2176 31.2359 39.7282 31.2359 42.0498C31.2359 45.3757 31.2069 48.0512 31.2069 48.8704C31.2069 49.5331 31.6581 50.3069 32.9249 50.064C38.5549 48.1946 43.3325 44.3947 46.4032 39.344C49.4738 34.2932 50.6373 28.321 49.6854 22.4955C48.7336 16.67 45.7286 11.3711 41.2078 7.54662C36.687 3.72215 30.9453 1.62149 25.0097 1.62036H25.0014Z" fill="#F6F6F6"/>
<path d="M9.46872 37.312C9.41491 37.4355 9.2162 37.4726 9.05475 37.3861C8.8933 37.2997 8.77326 37.1392 8.83121 37.0116C8.88917 36.884 9.08374 36.851 9.24519 36.9375C9.40664 37.0239 9.53082 37.1886 9.46872 37.312Z" fill="#F6F6F6"/>
<path d="M10.4829 38.4357C10.3971 38.4787 10.2991 38.4907 10.2054 38.4697C10.1118 38.4486 10.0284 38.3959 9.96954 38.3205C9.80809 38.1476 9.77495 37.9089 9.89915 37.8019C10.0233 37.6948 10.2469 37.7442 10.4084 37.9171C10.5698 38.09 10.6071 38.3287 10.4829 38.4357Z" fill="#F6F6F6"/>
<path d="M11.4683 39.864C11.3151 39.971 11.0543 39.864 10.9094 39.65C10.8693 39.6116 10.8375 39.5656 10.8157 39.5146C10.7939 39.4637 10.7827 39.409 10.7827 39.3536C10.7827 39.2983 10.7939 39.2435 10.8157 39.1926C10.8375 39.1417 10.8693 39.0957 10.9094 39.0573C11.0626 38.9544 11.3234 39.0573 11.4683 39.2672C11.6132 39.4771 11.6173 39.757 11.4683 39.864V39.864Z" fill="#F6F6F6"/>
<path d="M12.8052 41.2471C12.6686 41.3994 12.3912 41.3582 12.1635 41.1524C11.9358 40.9466 11.882 40.6667 12.0186 40.5185C12.1552 40.3703 12.4326 40.4115 12.6686 40.6132C12.9045 40.8149 12.9501 41.0989 12.8052 41.2471V41.2471Z" fill="#F6F6F6"/>
<path d="M14.6807 42.0539C14.6186 42.2473 14.3371 42.3338 14.0556 42.2514C13.7741 42.1691 13.5878 41.9386 13.6416 41.741C13.6954 41.5435 13.9811 41.4529 14.2667 41.5435C14.5523 41.634 14.7345 41.8522 14.6807 42.0539Z" fill="#F6F6F6"/>
<path d="M16.7255 42.1938C16.7255 42.3955 16.4937 42.5684 16.1956 42.5725C15.8976 42.5767 15.6533 42.412 15.6533 42.2103C15.6533 42.0086 15.8851 41.8357 16.1832 41.8316C16.4813 41.8275 16.7255 41.988 16.7255 42.1938Z" fill="#F6F6F6"/>
<path d="M18.6301 41.8769C18.6674 42.0786 18.4604 42.2885 18.1623 42.3379C17.8643 42.3873 17.6035 42.2679 17.5662 42.0703C17.529 41.8728 17.7442 41.6587 18.034 41.6052C18.3238 41.5517 18.5929 41.6752 18.6301 41.8769Z" fill="#F6F6F6"/>
</g>
<defs>
<clipPath id="clip0_46_758">
<rect width="50" height="50" fill="white" transform="translate(0.000976562 0.578674)"/>
</clipPath>
</defs>
</svg>
