<svg width="50" height="50" viewBox="0 0 50 50" fill="none" xmlns="http://www.w3.org/2000/svg">
<g clip-path="url(#clip0_46_761)">
<path fill-rule="evenodd" clip-rule="evenodd" d="M35.0903 13.6412C32.509 11.1793 29.0642 9.83812 25.5 9.89323C18.9779 9.89323 13.4387 14.2933 11.4636 20.2183C10.4164 23.3232 10.4164 26.6855 11.4636 29.7904H11.4728C13.457 35.7062 18.987 40.1064 25.5092 40.1064C28.8759 40.1064 31.7662 39.2452 34.0064 37.7242V37.7181C36.6428 35.9727 38.4433 33.226 39.0036 30.1211H25.5V20.4941H49.0808C49.3748 22.166 49.5125 23.8746 49.5125 25.574C49.5125 33.1779 46.7951 39.6066 42.0668 43.9607L42.0717 43.9646C37.9288 47.786 32.2426 49.9998 25.5 49.9998C16.0475 49.9998 7.40334 44.6719 3.15935 36.2298C-0.38646 29.1657 -0.386451 20.8431 3.15938 13.779C7.40336 5.3278 16.0475 -0.000207369 25.5 -0.000207369C31.7098 -0.0736963 37.7083 2.25958 42.2279 6.50356L35.0903 13.6412Z" fill="#F7F7F7"/>
</g>
<defs>
<clipPath id="clip0_46_761">
<rect width="50" height="50" fill="white"/>
</clipPath>
</defs>
</svg>
