<svg width="50" height="51" viewBox="0 0 50 51" fill="none" xmlns="http://www.w3.org/2000/svg">
<g clip-path="url(#clip0_46_759)">
<path d="M25 4.86993C31.6797 4.86993 32.4707 4.89923 35.0977 5.01642C37.5391 5.12384 38.8574 5.534 39.7363 5.87579C40.8984 6.32501 41.7383 6.87189 42.6074 7.74103C43.4863 8.61993 44.0234 9.45001 44.4727 10.6121C44.8145 11.491 45.2246 12.8192 45.332 15.2508C45.4492 17.8875 45.4785 18.6785 45.4785 25.3484C45.4785 32.0281 45.4492 32.8192 45.332 35.4461C45.2246 37.8875 44.8145 39.2059 44.4727 40.0848C44.0234 41.2469 43.4766 42.0867 42.6074 42.9559C41.7285 43.8348 40.8984 44.3719 39.7363 44.8211C38.8574 45.1629 37.5293 45.5731 35.0977 45.6805C32.4609 45.7977 31.6699 45.827 25 45.827C18.3203 45.827 17.5293 45.7977 14.9023 45.6805C12.4609 45.5731 11.1426 45.1629 10.2637 44.8211C9.10156 44.3719 8.26172 43.825 7.39258 42.9559C6.51367 42.077 5.97656 41.2469 5.52734 40.0848C5.18555 39.2059 4.77539 37.8777 4.66797 35.4461C4.55078 32.8094 4.52148 32.0184 4.52148 25.3484C4.52148 18.6688 4.55078 17.8777 4.66797 15.2508C4.77539 12.8094 5.18555 11.491 5.52734 10.6121C5.97656 9.45001 6.52344 8.61017 7.39258 7.74103C8.27148 6.86212 9.10156 6.32501 10.2637 5.87579C11.1426 5.534 12.4707 5.12384 14.9023 5.01642C17.5293 4.89923 18.3203 4.86993 25 4.86993ZM25 0.367981C18.2129 0.367981 17.3633 0.397278 14.6973 0.514465C12.041 0.631653 10.2148 1.06134 8.63281 1.67657C6.98242 2.32111 5.58594 3.17072 4.19922 4.5672C2.80273 5.95392 1.95312 7.3504 1.30859 8.99103C0.693359 10.5828 0.263672 12.3992 0.146484 15.0555C0.0292969 17.7313 0 18.5809 0 25.368C0 32.1551 0.0292969 33.0047 0.146484 35.6707C0.263672 38.327 0.693359 40.1531 1.30859 41.7352C1.95312 43.3856 2.80273 44.782 4.19922 46.1688C5.58594 47.5555 6.98242 48.4149 8.62305 49.0496C10.2148 49.6649 12.0312 50.0945 14.6875 50.2117C17.3535 50.3289 18.2031 50.3582 24.9902 50.3582C31.7773 50.3582 32.627 50.3289 35.293 50.2117C37.9492 50.0945 39.7754 49.6649 41.3574 49.0496C42.998 48.4149 44.3945 47.5555 45.7812 46.1688C47.168 44.782 48.0273 43.3856 48.6621 41.7449C49.2773 40.1531 49.707 38.3367 49.8242 35.6805C49.9414 33.0145 49.9707 32.1649 49.9707 25.3777C49.9707 18.5906 49.9414 17.741 49.8242 15.075C49.707 12.4188 49.2773 10.5926 48.6621 9.01056C48.0469 7.3504 47.1973 5.95392 45.8008 4.5672C44.4141 3.18048 43.0176 2.32111 41.377 1.68634C39.7852 1.07111 37.9688 0.641418 35.3125 0.524231C32.6367 0.397278 31.7871 0.367981 25 0.367981Z" fill="#F6F6F6"/>
<path d="M25 12.5262C17.9102 12.5262 12.1582 18.2781 12.1582 25.368C12.1582 32.4578 17.9102 38.2098 25 38.2098C32.0898 38.2098 37.8418 32.4578 37.8418 25.368C37.8418 18.2781 32.0898 12.5262 25 12.5262ZM25 33.6981C20.4004 33.6981 16.6699 29.9676 16.6699 25.368C16.6699 20.7684 20.4004 17.0379 25 17.0379C29.5996 17.0379 33.3301 20.7684 33.3301 25.368C33.3301 29.9676 29.5996 33.6981 25 33.6981Z" fill="#F6F6F6"/>
<path d="M41.3477 12.0183C41.3477 13.6784 40 15.0163 38.3496 15.0163C36.6895 15.0163 35.3516 13.6686 35.3516 12.0183C35.3516 10.3581 36.6992 9.0202 38.3496 9.0202C40 9.0202 41.3477 10.3679 41.3477 12.0183Z" fill="#F6F6F6"/>
</g>
<defs>
<clipPath id="clip0_46_759">
<rect width="50" height="50" fill="white" transform="translate(0 0.367981)"/>
</clipPath>
</defs>
</svg>
