<svg width="50" height="51" viewBox="0 0 50 51" fill="none" xmlns="http://www.w3.org/2000/svg">
<g clip-path="url(#clip0_46_760)">
<path fill-rule="evenodd" clip-rule="evenodd" d="M50.001 25.7893C50.001 39.5964 38.8081 50.7893 25.001 50.7893C11.1939 50.7893 0.000976562 39.5964 0.000976562 25.7893C0.000976562 11.9822 11.1939 0.789307 25.001 0.789307C38.8081 0.789307 50.001 11.9822 50.001 25.7893ZM25.8969 19.2454C23.4652 20.2568 18.6054 22.3501 11.3174 25.5254C10.134 25.996 9.51401 26.4564 9.45758 26.9066C9.3622 27.6674 10.315 27.967 11.6124 28.375C11.7889 28.4305 11.9717 28.488 12.1592 28.5489C13.4356 28.9638 15.1527 29.4493 16.0453 29.4685C16.855 29.486 17.7587 29.1522 18.7565 28.4671C25.5659 23.8706 29.0809 21.5472 29.3016 21.4972C29.4573 21.4618 29.6731 21.4174 29.8192 21.5473C29.9654 21.6772 29.951 21.9233 29.9356 21.9893C29.8412 22.3917 26.1012 25.8687 24.1658 27.668C23.5624 28.2289 23.1345 28.6268 23.047 28.7177C22.851 28.9213 22.6512 29.1138 22.4593 29.2989C21.2734 30.4421 20.3841 31.2993 22.5085 32.6993C23.5294 33.372 24.3463 33.9284 25.1613 34.4834C26.0513 35.0895 26.9391 35.694 28.0877 36.4469C28.3803 36.6388 28.6598 36.838 28.932 37.0321C29.9678 37.7705 30.8984 38.4339 32.048 38.3281C32.7161 38.2666 33.4061 37.6385 33.7565 35.765C34.5848 31.3375 36.2127 21.7444 36.5889 17.7913C36.6219 17.445 36.5804 17.0017 36.5471 16.8072C36.5138 16.6126 36.4442 16.3354 36.1913 16.1301C35.8918 15.8871 35.4294 15.8358 35.2226 15.8395C34.2823 15.856 32.8396 16.3577 25.8969 19.2454Z" fill="#F6F6F6"/>
</g>
<defs>
<clipPath id="clip0_46_760">
<rect width="50" height="50" fill="white" transform="translate(0.000976562 0.789307)"/>
</clipPath>
</defs>
</svg>
